<svg width="109" height="25" viewBox="0 0 109 25" fill="none" xmlns="http://www.w3.org/2000/svg">
<path d="M0.333252 12.0599H2.62265C8.14347 12.0599 11.7016 8.4778 11.7016 2.98098V0.690918H12.9649V2.98031C12.9649 8.47913 16.525 12.0592 22.0439 12.0592H24.3333V13.3226H22.0439C16.523 13.3226 12.9649 16.9047 12.9649 22.4015V24.6909H11.7016V22.4015C11.7016 16.9027 8.14147 13.3226 2.62265 13.3226H0.333252V12.0592V12.0599Z" fill="#23266E"/>
<path d="M45.7246 0.719278C45.4746 0.692613 45.2112 0.692613 44.8829 0.692613C42.1212 0.692613 39.9912 1.41424 38.5361 2.83251C38.0128 3.34415 37.5811 3.94246 37.2611 4.60076C36.6078 6.00569 36.2911 7.54395 36.3378 9.09388V24.5248H37.5711V9.15054C37.5528 8.07226 37.7094 7.00065 38.0345 5.97236C38.3145 5.11907 38.7895 4.34244 39.4211 3.70747C39.7195 3.41415 40.0512 3.15583 40.4078 2.93751L40.4478 2.91417C41.5778 2.25254 43.0479 1.89589 44.8062 1.89589C45.2079 1.89589 46.5546 1.93922 46.5679 1.93922H46.7396V0.82094L46.6113 0.800941C46.3446 0.764276 46.0563 0.73761 45.7279 0.717611L45.7246 0.719278Z" fill="#23266E"/>
<path d="M66.4566 3.1025L66.1633 2.81918C64.7083 1.40925 62.5849 0.692613 59.8265 0.692613C58.0865 0.687613 56.3614 1.0126 54.7447 1.65257C53.2197 2.23921 51.8214 3.10916 50.623 4.21911L50.498 4.33411L51.3664 5.2024L51.4814 5.09407C52.5497 4.10578 53.7897 3.31915 55.1398 2.77418C56.6431 2.16588 58.2515 1.86422 59.8732 1.88256C62.2332 1.88256 64.0516 2.49086 65.2766 3.6908C66.5033 4.89075 67.1233 6.70233 67.1233 9.09221V11.5021H58.4198C56.3264 11.5021 54.6431 11.8038 53.4131 12.3987C52.303 12.8987 51.3747 13.727 50.7497 14.7719C50.2063 15.7436 49.9247 16.8385 49.928 17.9501C49.903 19.1967 50.2463 20.4233 50.9147 21.4766C51.6264 22.5349 52.6364 23.3599 53.8164 23.8432C55.2614 24.4365 56.8131 24.7231 58.3765 24.6881C60.8449 24.6881 62.9099 24.0998 64.5099 22.9366C65.5849 22.1716 66.4816 21.1833 67.14 20.04V24.5248H68.3733V9.04555C68.3733 6.504 67.7166 4.50576 66.4466 3.1025H66.4566ZM67.1133 12.6904V17.6535C66.47 19.3767 65.3366 20.8733 63.8566 21.9633C62.4332 22.9782 60.5699 23.4915 58.3665 23.4915C56.1631 23.4915 54.2964 22.9649 53.0514 21.9699C52.4414 21.4883 51.953 20.8717 51.6247 20.1667C51.2964 19.4617 51.1397 18.6901 51.1647 17.9135C51.1463 17.2068 51.2847 16.5035 51.568 15.8552C51.8514 15.2069 52.2747 14.6286 52.808 14.1636C53.8997 13.177 55.7664 12.6904 58.3798 12.6904H67.1133Z" fill="#23266E"/>
<path d="M106.842 6.45234C105.879 4.70076 104.459 3.24082 102.734 2.23254C100.936 1.19592 98.8922 0.664281 96.8172 0.692613C94.7488 0.657614 92.7088 1.19092 90.9204 2.23087C89.1987 3.24582 87.782 4.70242 86.8153 6.45067C85.7753 8.35391 85.252 10.4955 85.297 12.6637C85.2603 14.8303 85.7836 16.9702 86.812 18.8767C87.772 20.645 89.192 22.1216 90.9204 23.1499C92.7088 24.1898 94.7455 24.7215 96.8138 24.6881C98.8889 24.7181 100.934 24.1865 102.731 23.1499C104.467 22.1299 105.889 20.6517 106.839 18.8767C107.861 16.9685 108.374 14.8286 108.331 12.6637C108.374 10.4988 107.862 8.36058 106.841 6.45067L106.842 6.45234ZM96.8138 23.4999C94.9671 23.5282 93.1488 23.0532 91.5537 22.1233C90.0071 21.2016 88.7387 19.8784 87.882 18.2934C86.942 16.5719 86.4687 14.6336 86.5087 12.672C86.4703 10.7055 86.9387 8.76056 87.8703 7.02731C88.7304 5.45405 90.0054 4.14578 91.5554 3.24416C93.1538 2.3242 94.9705 1.85422 96.8155 1.88256C98.6655 1.85756 100.487 2.32753 102.094 3.24416C103.644 4.14078 104.914 5.45072 105.762 7.02731C106.681 8.7639 107.141 10.7071 107.101 12.672C107.136 14.6286 106.676 16.5619 105.762 18.2934C104.912 19.8817 103.642 21.205 102.091 22.1233C100.489 23.0515 98.6655 23.5282 96.8155 23.4999H96.8138Z" fill="#23266E"/>
<path d="M83.3219 0.719278C83.0719 0.692613 82.8086 0.692613 82.4803 0.692613C79.7185 0.692613 77.5885 1.41424 76.1335 2.83251C75.6101 3.34415 75.1785 3.94246 74.8584 4.60076C74.2051 6.00569 73.8884 7.54395 73.9351 9.09388V24.5248H75.1685V9.15054C75.1501 8.07226 75.3068 7.00065 75.6318 5.97236C75.9118 5.11907 76.3868 4.34244 77.0185 3.70747C77.3168 3.41415 77.6485 3.15583 78.0052 2.93751L78.0452 2.91417C79.1752 2.25254 80.6452 1.89589 82.4036 1.89589C82.8053 1.89589 84.1519 1.93922 84.1653 1.93922H84.3369V0.82094L84.2086 0.800941C83.9419 0.764276 83.6536 0.73761 83.3253 0.717611L83.3219 0.719278Z" fill="#23266E"/>
</svg>
