<svg width="25" height="19" viewBox="0 0 25 19" fill="none" xmlns="http://www.w3.org/2000/svg">
<path d="M10.9663 13.1381C10.9663 16.176 8.90046 18.3026 5.86249 18.3026C2.52072 18.3026 0.333374 15.6292 0.333374 11.6191C0.333374 5.66465 4.10046 1.28997 9.69034 0.682373V4.02414C6.71312 4.57098 4.70806 6.21148 4.70806 8.70262C5.19413 8.45959 5.80173 8.33807 6.47008 8.33807C9.02198 8.33807 10.9663 10.1609 10.9663 13.1381ZM24.3334 13.1381C24.3334 16.176 22.2675 18.3026 19.2296 18.3026C15.8878 18.3026 13.7005 15.6292 13.7005 11.6191C13.7005 5.66465 17.4676 1.28997 23.0574 0.682373V4.02414C20.0802 4.57098 18.0751 6.21148 18.0751 8.70262C18.5612 8.45959 19.1688 8.33807 19.8372 8.33807C22.3891 8.33807 24.3334 10.1609 24.3334 13.1381Z" fill="#5E6186"/>
</svg>
